<?xml version="1.0" encoding="UTF-8"?>
<!DOCTYPE svg PUBLIC "-//W3C//DTD SVG 1.1//EN" "http://www.w3.org/Graphics/SVG/1.1/DTD/svg11.dtd">
<svg xmlns="http://www.w3.org/2000/svg" version="1.1" width="314px" height="320px" style="shape-rendering:geometricPrecision; text-rendering:geometricPrecision; image-rendering:optimizeQuality; fill-rule:evenodd; clip-rule:evenodd" xmlns:xlink="http://www.w3.org/1999/xlink">
<g><path style="opacity:0.631" fill="#d4f7cd" d="M 161.5,2.5 C 154.847,3.05434 148.18,3.38767 141.5,3.5C 148.134,1.83497 154.8,1.50164 161.5,2.5 Z"/></g>
<g><path style="opacity:1" fill="#79e666" d="M 161.5,2.5 C 166.854,2.56884 172.187,2.90218 177.5,3.5C 179.838,5.03954 182.505,5.70621 185.5,5.5C 191.455,6.05027 197.122,7.3836 202.5,9.5C 204.102,11.0739 206.102,11.7406 208.5,11.5C 221.829,15.9972 234.162,22.3305 245.5,30.5C 246.035,32.4456 247.368,33.4456 249.5,33.5C 252.447,34.7805 254.781,36.7805 256.5,39.5C 256.833,40.5 257.5,41.1667 258.5,41.5C 263.105,44.4357 267.105,48.1024 270.5,52.5C 270.738,54.4044 271.738,55.7377 273.5,56.5C 273.833,57.5 274.5,58.1667 275.5,58.5C 276.5,58.8333 277.167,59.5 277.5,60.5C 277.427,62.0269 278.094,63.0269 279.5,63.5C 281.522,65.5313 283.189,67.8646 284.5,70.5C 284.427,72.0269 285.094,73.0269 286.5,73.5C 286.427,75.0269 287.094,76.0269 288.5,76.5C 288.427,78.0269 289.094,79.0269 290.5,79.5C 293.674,84.5156 296.341,89.8489 298.5,95.5C 298.66,97.153 299.326,98.4863 300.5,99.5C 302.139,103.388 303.473,107.388 304.5,111.5C 304.41,114.152 305.076,116.485 306.5,118.5C 308.13,122.911 309.13,127.578 309.5,132.5C 309.717,140.02 310.384,147.354 311.5,154.5C 312.405,158.333 312.405,162.333 311.5,166.5C 310.111,171.269 309.444,176.269 309.5,181.5C 301.47,228.727 277.137,265.227 236.5,291C 219.078,301.218 200.411,307.718 180.5,310.5C 173.654,310.818 166.987,311.485 160.5,312.5C 157.535,313.734 154.535,313.734 151.5,312.5C 145.35,311.457 139.016,310.79 132.5,310.5C 128.665,310.583 124.998,309.917 121.5,308.5C 119.485,307.076 117.152,306.41 114.5,306.5C 110.213,305.768 106.213,304.435 102.5,302.5C 100.898,300.926 98.8984,300.259 96.5,300.5C 89.019,297.594 82.019,293.928 75.5,289.5C 75.0269,288.094 74.0269,287.427 72.5,287.5C 72.0269,286.094 71.0269,285.427 69.5,285.5C 69.0269,284.094 68.0269,283.427 66.5,283.5C 66.0269,282.094 65.0269,281.427 63.5,281.5C 62.7377,279.738 61.4044,278.738 59.5,278.5C 58.1667,277.833 57.1667,276.833 56.5,275.5C 56.0269,274.094 55.0269,273.427 53.5,273.5C 51.5,272.167 49.8333,270.5 48.5,268.5C 48.0269,267.094 47.0269,266.427 45.5,266.5C 39.7867,260.122 34.4534,253.455 29.5,246.5C 29.7148,244.821 29.0481,243.821 27.5,243.5C 5.22614,209.957 -2.94053,172.957 3,132.5C 4.07597,126.03 5.57597,119.696 7.5,113.5C 9.21321,112.365 9.87988,110.698 9.5,108.5C 10.0417,105.327 11.0417,102.327 12.5,99.5C 13.6737,98.4863 14.3404,97.153 14.5,95.5C 14.5,95.1667 14.5,94.8333 14.5,94.5C 15.9063,94.0269 16.573,93.0269 16.5,91.5C 16.5,91.1667 16.5,90.8333 16.5,90.5C 17.9063,90.0269 18.573,89.0269 18.5,87.5C 19.3257,84.5152 20.659,81.8485 22.5,79.5C 23.9063,79.0269 24.573,78.0269 24.5,76.5C 25.9063,76.0269 26.573,75.0269 26.5,73.5C 27.9063,73.0269 28.573,72.0269 28.5,70.5C 30.7376,65.9289 33.7376,61.9289 37.5,58.5C 39.5869,57.4154 40.9202,55.7488 41.5,53.5C 44.1667,50.1667 47.1667,47.1667 50.5,44.5C 53.0892,43.5806 55.0892,41.914 56.5,39.5C 57.9108,37.086 59.9108,35.4194 62.5,34.5C 64.4044,34.2624 65.7377,33.2624 66.5,31.5C 76.187,23.9838 86.8537,17.9838 98.5,13.5C 100.898,13.7406 102.898,13.0739 104.5,11.5C 106.698,11.8799 108.365,11.2132 109.5,9.5C 109.833,9.5 110.167,9.5 110.5,9.5C 113.152,9.59047 115.485,8.92381 117.5,7.5C 117.833,7.5 118.167,7.5 118.5,7.5C 121.428,7.43487 124.095,6.7682 126.5,5.5C 126.833,5.5 127.167,5.5 127.5,5.5C 130.781,5.57968 133.781,4.91301 136.5,3.5C 138.167,3.5 139.833,3.5 141.5,3.5C 148.18,3.38767 154.847,3.05434 161.5,2.5 Z M 106.5,84.5 C 130.548,84.0401 154.548,84.7068 178.5,86.5C 181.589,87.7846 184.922,88.4512 188.5,88.5C 189.167,88.5 189.833,88.5 190.5,88.5C 192.838,90.0395 195.505,90.7062 198.5,90.5C 201.763,91.4822 205.097,92.1489 208.5,92.5C 210.838,94.0395 213.505,94.7062 216.5,94.5C 218.936,95.871 221.603,96.871 224.5,97.5C 224.833,97.5 225.167,97.5 225.5,97.5C 226.93,98.5375 228.597,99.2041 230.5,99.5C 231.167,99.5 231.833,99.5 232.5,99.5C 232.973,100.906 233.973,101.573 235.5,101.5C 245.537,105.352 255.204,110.018 264.5,115.5C 267.905,119.492 269.572,124.158 269.5,129.5C 268.463,130.93 267.796,132.597 267.5,134.5C 266.094,134.973 265.427,135.973 265.5,137.5C 262.532,139.232 259.365,140.565 256,141.5C 247.31,138.237 238.81,134.571 230.5,130.5C 228.786,129.262 226.786,128.595 224.5,128.5C 218.501,125.724 212.167,123.724 205.5,122.5C 203.095,121.232 200.428,120.565 197.5,120.5C 193.068,118.908 188.402,117.741 183.5,117C 174.577,115.353 165.577,114.52 156.5,114.5C 140.835,111.87 125.168,111.87 109.5,114.5C 107.833,114.5 106.167,114.5 104.5,114.5C 100.84,114.159 97.5072,114.825 94.5,116.5C 93.5,116.5 92.5,116.5 91.5,116.5C 88.5049,116.294 85.8383,116.96 83.5,118.5C 83.1667,118.5 82.8333,118.5 82.5,118.5C 79.5718,118.565 76.9052,119.232 74.5,120.5C 74.1667,120.5 73.8333,120.5 73.5,120.5C 69.19,121.08 64.8566,121.414 60.5,121.5C 59.791,120.596 58.791,120.263 57.5,120.5C 57.0269,119.094 56.0269,118.427 54.5,118.5C 52.6012,116.036 51.2679,113.369 50.5,110.5C 50.7038,107.482 51.0371,104.482 51.5,101.5C 52.6896,99.6455 54.0229,97.8121 55.5,96C 61.0435,93.7268 66.7102,91.8934 72.5,90.5C 75.1522,90.5905 77.4855,89.9238 79.5,88.5C 79.8333,88.5 80.1667,88.5 80.5,88.5C 84.1595,88.8412 87.4928,88.1745 90.5,86.5C 90.8333,86.5 91.1667,86.5 91.5,86.5C 96.7664,86.8112 101.766,86.1446 106.5,84.5 Z M 164.5,139.5 C 168.295,140.617 172.295,141.283 176.5,141.5C 179.627,142.581 182.96,143.247 186.5,143.5C 188.905,144.768 191.572,145.435 194.5,145.5C 196.515,146.924 198.848,147.59 201.5,147.5C 201.833,147.5 202.167,147.5 202.5,147.5C 203.635,149.213 205.302,149.88 207.5,149.5C 208.78,150.931 210.447,151.598 212.5,151.5C 213.78,152.931 215.447,153.598 217.5,153.5C 223.677,156.754 230.01,159.754 236.5,162.5C 236.973,163.906 237.973,164.573 239.5,164.5C 242.167,166.5 244.5,168.833 246.5,171.5C 247.265,174.096 247.599,176.763 247.5,179.5C 246.652,183.017 244.652,185.684 241.5,187.5C 237.833,188.833 234.167,188.833 230.5,187.5C 218.062,179.904 204.729,174.237 190.5,170.5C 188.401,169.388 186.067,168.721 183.5,168.5C 183.167,168.5 182.833,168.5 182.5,168.5C 180.786,167.262 178.786,166.595 176.5,166.5C 143.659,159.494 110.992,160.161 78.5,168.5C 74.8166,169.675 71.15,169.675 67.5,168.5C 66.4863,167.326 65.153,166.66 63.5,166.5C 63.573,164.973 62.9063,163.973 61.5,163.5C 61.5,163.167 61.5,162.833 61.5,162.5C 60.1667,158.833 60.1667,155.167 61.5,151.5C 63.9078,149.084 66.5744,147.084 69.5,145.5C 72.0673,145.279 74.4006,144.612 76.5,143.5C 81.0348,142.863 85.3681,141.863 89.5,140.5C 93.7329,140.461 97.7329,139.795 101.5,138.5C 122.529,137.044 143.529,137.377 164.5,139.5 Z M 160.5,189.5 C 160.833,189.5 161.167,189.5 161.5,189.5C 164.589,190.785 167.922,191.451 171.5,191.5C 172.167,191.5 172.833,191.5 173.5,191.5C 175.438,193.163 177.772,193.829 180.5,193.5C 182.214,194.738 184.214,195.405 186.5,195.5C 187.167,195.5 187.833,195.5 188.5,195.5C 189.287,197.104 190.62,197.771 192.5,197.5C 203.777,201.91 214.777,207.076 225.5,213C 226.305,214.113 226.972,215.279 227.5,216.5C 228.678,219.477 228.678,222.477 227.5,225.5C 224.357,229.24 220.357,230.407 215.5,229C 206.776,223.587 197.443,219.42 187.5,216.5C 186.22,215.069 184.553,214.402 182.5,214.5C 180.095,213.232 177.428,212.565 174.5,212.5C 173.07,211.463 171.403,210.796 169.5,210.5C 168.5,210.5 167.5,210.5 166.5,210.5C 163.689,209.525 160.689,208.858 157.5,208.5C 143.077,207.516 128.743,207.182 114.5,207.5C 108.455,208.238 102.455,209.238 96.5,210.5C 92.6125,210.646 88.9458,211.313 85.5,212.5C 83.901,212.232 82.5676,212.566 81.5,213.5C 78.0977,213.658 74.7644,213.324 71.5,212.5C 70.5,211.833 69.5,211.167 68.5,210.5C 67.701,207.57 67.3677,204.57 67.5,201.5C 68.7007,199.091 70.3674,197.091 72.5,195.5C 75.4282,195.435 78.0948,194.768 80.5,193.5C 80.8333,193.5 81.1667,193.5 81.5,193.5C 85.4578,193.749 89.1244,193.082 92.5,191.5C 92.8333,191.5 93.1667,191.5 93.5,191.5C 97.1224,191.678 100.456,191.011 103.5,189.5C 106.5,189.5 109.5,189.5 112.5,189.5C 128.818,188.168 144.818,188.168 160.5,189.5 Z"/></g>
<g><path style="opacity:0.027" fill="#e3fadf" d="M 177.5,3.5 C 180.428,3.56513 183.095,4.2318 185.5,5.5C 182.505,5.70621 179.838,5.03954 177.5,3.5 Z"/></g>
<g><path style="opacity:0.686" fill="#caf5c1" d="M 136.5,3.5 C 133.781,4.91301 130.781,5.57968 127.5,5.5C 130.219,4.08699 133.219,3.42032 136.5,3.5 Z"/></g>
<g><path style="opacity:0.671" fill="#c7f4be" d="M 126.5,5.5 C 124.095,6.7682 121.428,7.43487 118.5,7.5C 120.838,5.96046 123.505,5.29379 126.5,5.5 Z"/></g>
<g><path style="opacity:0.839" fill="#bcf2b1" d="M 117.5,7.5 C 115.485,8.92381 113.152,9.59047 110.5,9.5C 112.515,8.07619 114.848,7.40953 117.5,7.5 Z"/></g>
<g><path style="opacity:0.741" fill="#cdf6c5" d="M 109.5,9.5 C 108.365,11.2132 106.698,11.8799 104.5,11.5C 105.93,10.4625 107.597,9.79586 109.5,9.5 Z"/></g>
<g><path style="opacity:0.42" fill="#d1f7ca" d="M 202.5,9.5 C 204.786,9.59495 206.786,10.2616 208.5,11.5C 206.102,11.7406 204.102,11.0739 202.5,9.5 Z"/></g>
<g><path style="opacity:0.745" fill="#c9f5c1" d="M 104.5,11.5 C 102.898,13.0739 100.898,13.7406 98.5,13.5C 100.214,12.2616 102.214,11.595 104.5,11.5 Z"/></g>
<g><path style="opacity:0.886" fill="#c5f4bb" d="M 245.5,30.5 C 247.23,31.0256 248.564,32.0256 249.5,33.5C 247.368,33.4456 246.035,32.4456 245.5,30.5 Z"/></g>
<g><path style="opacity:0.69" fill="#bff3b4" d="M 66.5,31.5 C 65.7377,33.2624 64.4044,34.2624 62.5,34.5C 63.2623,32.7376 64.5956,31.7376 66.5,31.5 Z"/></g>
<g><path style="opacity:0.008" fill="#dcf9d6" d="M 256.5,39.5 C 257.833,39.5 258.5,40.1667 258.5,41.5C 257.5,41.1667 256.833,40.5 256.5,39.5 Z"/></g>
<g><path style="opacity:0.91" fill="#b5f1a7" d="M 56.5,39.5 C 55.0892,41.914 53.0892,43.5806 50.5,44.5C 51.9108,42.086 53.9108,40.4194 56.5,39.5 Z"/></g>
<g><path style="opacity:0.592" fill="#c5f4ba" d="M 270.5,52.5 C 272.262,53.2623 273.262,54.5956 273.5,56.5C 271.738,55.7377 270.738,54.4044 270.5,52.5 Z"/></g>
<g><path style="opacity:0.463" fill="#d2f6cb" d="M 41.5,53.5 C 40.9202,55.7488 39.5869,57.4154 37.5,58.5C 38.0798,56.2512 39.4131,54.5846 41.5,53.5 Z"/></g>
<g><path style="opacity:0.008" fill="#def8d9" d="M 273.5,56.5 C 274.833,56.5 275.5,57.1667 275.5,58.5C 274.5,58.1667 273.833,57.5 273.5,56.5 Z"/></g>
<g><path style="opacity:0.502" fill="#c4f4ba" d="M 277.5,60.5 C 278.906,60.9731 279.573,61.9731 279.5,63.5C 278.094,63.0269 277.427,62.0269 277.5,60.5 Z"/></g>
<g><path style="opacity:0.545" fill="#c2f3b8" d="M 28.5,70.5 C 28.573,72.0269 27.9063,73.0269 26.5,73.5C 26.427,71.9731 27.0937,70.9731 28.5,70.5 Z"/></g>
<g><path style="opacity:0.529" fill="#c2f3b8" d="M 284.5,70.5 C 285.906,70.9731 286.573,71.9731 286.5,73.5C 285.094,73.0269 284.427,72.0269 284.5,70.5 Z"/></g>
<g><path style="opacity:0.545" fill="#c4f4ba" d="M 26.5,73.5 C 26.573,75.0269 25.9063,76.0269 24.5,76.5C 24.427,74.9731 25.0937,73.9731 26.5,73.5 Z"/></g>
<g><path style="opacity:0.525" fill="#c4f4ba" d="M 286.5,73.5 C 287.906,73.9731 288.573,74.9731 288.5,76.5C 287.094,76.0269 286.427,75.0269 286.5,73.5 Z"/></g>
<g><path style="opacity:0.443" fill="#c9f5c0" d="M 24.5,76.5 C 24.573,78.0269 23.9063,79.0269 22.5,79.5C 22.427,77.9731 23.0937,76.9731 24.5,76.5 Z"/></g>
<g><path style="opacity:0.427" fill="#c9f5c0" d="M 288.5,76.5 C 289.906,76.9731 290.573,77.9731 290.5,79.5C 289.094,79.0269 288.427,78.0269 288.5,76.5 Z"/></g>
<g><path style="opacity:0.047" fill="#e0f9db" d="M 106.5,84.5 C 101.766,86.1446 96.7664,86.8112 91.5,86.5C 96.2502,84.9692 101.25,84.3025 106.5,84.5 Z"/></g>
<g><path style="opacity:0.122" fill="#ddf8d8" d="M 90.5,86.5 C 87.4928,88.1745 84.1595,88.8412 80.5,88.5C 83.5885,87.2154 86.9219,86.5488 90.5,86.5 Z"/></g>
<g><path style="opacity:0.49" fill="#d7f7d1" d="M 178.5,86.5 C 182.122,86.322 185.456,86.9886 188.5,88.5C 184.922,88.4512 181.589,87.7846 178.5,86.5 Z"/></g>
<g><path style="opacity:0.314" fill="#d7f7d0" d="M 18.5,87.5 C 18.573,89.0269 17.9063,90.0269 16.5,90.5C 16.427,88.9731 17.0937,87.9731 18.5,87.5 Z"/></g>
<g><path style="opacity:0.004" fill="#effcec" d="M 79.5,88.5 C 77.4855,89.9238 75.1522,90.5905 72.5,90.5C 74.5145,89.0762 76.8478,88.4095 79.5,88.5 Z"/></g>
<g><path style="opacity:0.204" fill="#e0f9db" d="M 190.5,88.5 C 193.167,88.8333 195.833,89.1667 198.5,89.5C 198.5,89.8333 198.5,90.1667 198.5,90.5C 195.505,90.7062 192.838,90.0395 190.5,88.5 Z"/></g>
<g><path style="opacity:0.933" fill="#b2f0a5" d="M 198.5,90.5 C 198.5,90.1667 198.5,89.8333 198.5,89.5C 202.162,89.7234 205.495,90.7234 208.5,92.5C 205.097,92.1489 201.763,91.4822 198.5,90.5 Z"/></g>
<g><path style="opacity:0.784" fill="#c7f5bd" d="M 208.5,92.5 C 211.428,92.5651 214.095,93.2318 216.5,94.5C 213.505,94.7062 210.838,94.0395 208.5,92.5 Z"/></g>
<g><path style="opacity:0.302" fill="#d4f7cd" d="M 16.5,91.5 C 16.573,93.0269 15.9063,94.0269 14.5,94.5C 14.427,92.9731 15.0937,91.9731 16.5,91.5 Z"/></g>
<g><path style="opacity:0.918" fill="#bdf3b2" d="M 216.5,94.5 C 219.716,94.3455 222.383,95.3455 224.5,97.5C 221.603,96.871 218.936,95.871 216.5,94.5 Z"/></g>
<g><path style="opacity:0.137" fill="#d9f8d4" d="M 14.5,95.5 C 14.3404,97.153 13.6737,98.4863 12.5,99.5C 12.2291,97.6203 12.8958,96.287 14.5,95.5 Z"/></g>
<g><path style="opacity:0.843" fill="#c3f4b9" d="M 225.5,97.5 C 227.698,97.1201 229.365,97.7868 230.5,99.5C 228.597,99.2041 226.93,98.5375 225.5,97.5 Z"/></g>
<g><path style="opacity:0.133" fill="#d9f8d4" d="M 298.5,95.5 C 300.104,96.287 300.771,97.6203 300.5,99.5C 299.326,98.4863 298.66,97.153 298.5,95.5 Z"/></g>
<g><path style="opacity:0.196" fill="#dff9da" d="M 232.5,99.5 C 234.027,99.427 235.027,100.094 235.5,101.5C 233.973,101.573 232.973,100.906 232.5,99.5 Z"/></g>
<g><path style="opacity:0.22" fill="#d9f8d3" d="M 51.5,101.5 C 51.0371,104.482 50.7038,107.482 50.5,110.5C 49.1851,107.373 49.5185,104.373 51.5,101.5 Z"/></g>
<g><path style="opacity:0.859" fill="#c6f5bc" d="M 9.5,108.5 C 9.87988,110.698 9.21321,112.365 7.5,113.5C 7.79586,111.597 8.46253,109.93 9.5,108.5 Z"/></g>
<g><path style="opacity:0.63" fill="#caf5c2" d="M 156.5,114.5 C 140.832,113.214 125.166,113.214 109.5,114.5C 125.168,111.87 140.835,111.87 156.5,114.5 Z"/></g>
<g><path style="opacity:0.816" fill="#caf5c2" d="M 104.5,114.5 C 101.411,115.785 98.0781,116.451 94.5,116.5C 97.5072,114.825 100.84,114.159 104.5,114.5 Z"/></g>
<g><path style="opacity:0.718" fill="#caf5c2" d="M 91.5,116.5 C 89.0948,117.768 86.4282,118.435 83.5,118.5C 85.8383,116.96 88.5049,116.294 91.5,116.5 Z"/></g>
<g><path style="opacity:0.584" fill="#c3f4b8" d="M 304.5,111.5 C 305.924,113.515 306.59,115.848 306.5,118.5C 305.076,116.485 304.41,114.152 304.5,111.5 Z"/></g>
<g><path style="opacity:0.008" fill="#e4fae0" d="M 54.5,118.5 C 56.0269,118.427 57.0269,119.094 57.5,120.5C 55.9731,120.573 54.9731,119.906 54.5,118.5 Z"/></g>
<g><path style="opacity:0.827" fill="#bef3b3" d="M 82.5,118.5 C 80.1617,120.04 77.4951,120.706 74.5,120.5C 76.9052,119.232 79.5718,118.565 82.5,118.5 Z"/></g>
<g><path style="opacity:0.145" fill="#cff6c7" d="M 197.5,120.5 C 200.428,120.565 203.095,121.232 205.5,122.5C 202.505,122.706 199.838,122.04 197.5,120.5 Z"/></g>
<g><path style="opacity:0.008" fill="#dff9d9" d="M 73.5,120.5 C 69.2632,122.527 64.9298,122.861 60.5,121.5C 64.8566,121.414 69.19,121.08 73.5,120.5 Z"/></g>
<g><path style="opacity:0.569" fill="#c9f5c0" d="M 224.5,128.5 C 226.786,128.595 228.786,129.262 230.5,130.5C 228.102,130.741 226.102,130.074 224.5,128.5 Z"/></g>
<g><path style="opacity:0.639" fill="#cdf5c5" d="M 269.5,129.5 C 269.88,131.698 269.213,133.365 267.5,134.5C 267.796,132.597 268.463,130.93 269.5,129.5 Z"/></g>
<g><path style="opacity:0.29" fill="#dcf8d7" d="M 267.5,134.5 C 267.573,136.027 266.906,137.027 265.5,137.5C 265.427,135.973 266.094,134.973 267.5,134.5 Z"/></g>
<g><path style="opacity:0.418" fill="#ccf5c4" d="M 309.5,132.5 C 310.692,138.681 311.692,145.014 312.5,151.5C 311.873,152.417 311.539,153.417 311.5,154.5C 310.384,147.354 309.717,140.02 309.5,132.5 Z"/></g>
<g><path style="opacity:0.114" fill="#def9d8" d="M 101.5,138.5 C 97.7329,139.795 93.7329,140.461 89.5,140.5C 93.2357,139.011 97.2357,138.344 101.5,138.5 Z"/></g>
<g><path style="opacity:0.573" fill="#d2f6cb" d="M 164.5,139.5 C 168.817,139.083 172.817,139.75 176.5,141.5C 172.295,141.283 168.295,140.617 164.5,139.5 Z"/></g>
<g><path style="opacity:0.718" fill="#cbf5c2" d="M 186.5,143.5 C 189.495,143.294 192.162,143.96 194.5,145.5C 191.572,145.435 188.905,144.768 186.5,143.5 Z"/></g>
<g><path style="opacity:0.243" fill="#d9f8d3" d="M 76.5,143.5 C 74.4006,144.612 72.0673,145.279 69.5,145.5C 71.4385,143.837 73.7718,143.171 76.5,143.5 Z"/></g>
<g><path style="opacity:0.737" fill="#c7f4be" d="M 194.5,145.5 C 197.152,145.41 199.485,146.076 201.5,147.5C 198.848,147.59 196.515,146.924 194.5,145.5 Z"/></g>
<g><path style="opacity:0.149" fill="#d6f7cf" d="M 202.5,147.5 C 204.403,147.796 206.07,148.463 207.5,149.5C 205.302,149.88 203.635,149.213 202.5,147.5 Z"/></g>
<g><path style="opacity:0.957" fill="#c1f3b5" d="M 212.5,151.5 C 214.698,151.12 216.365,151.787 217.5,153.5C 215.447,153.598 213.78,152.931 212.5,151.5 Z"/></g>
<g><path style="opacity:0.337" fill="#cff6c7" d="M 61.5,151.5 C 60.1667,155.167 60.1667,158.833 61.5,162.5C 58.8333,158.833 58.8333,155.167 61.5,151.5 Z"/></g>
<g><path style="opacity:0.263" fill="#d8f7d2" d="M 236.5,162.5 C 238.027,162.427 239.027,163.094 239.5,164.5C 237.973,164.573 236.973,163.906 236.5,162.5 Z"/></g>
<g><path style="opacity:0.396" fill="#cff6c7" d="M 61.5,163.5 C 62.9063,163.973 63.573,164.973 63.5,166.5C 62.0937,166.027 61.427,165.027 61.5,163.5 Z"/></g>
<g><path style="opacity:0.576" fill="#c8f5bf" d="M 176.5,166.5 C 178.786,166.595 180.786,167.262 182.5,168.5C 180.102,168.741 178.102,168.074 176.5,166.5 Z"/></g>
<g><path style="opacity:0.51" fill="#bef3b4" d="M 67.5,168.5 C 71.15,169.675 74.8166,169.675 78.5,168.5C 74.8014,171.065 71.1347,171.065 67.5,168.5 Z"/></g>
<g><path style="opacity:0.612" fill="#c4f4ba" d="M 183.5,168.5 C 186.067,168.721 188.401,169.388 190.5,170.5C 187.772,170.829 185.438,170.163 183.5,168.5 Z"/></g>
<g><path style="opacity:0.435" fill="#d5f7ce" d="M 311.5,166.5 C 311.556,171.731 310.889,176.731 309.5,181.5C 309.444,176.269 310.111,171.269 311.5,166.5 Z"/></g>
<g><path style="opacity:0.259" fill="#d3f7cc" d="M 246.5,171.5 C 248.026,172.492 248.693,173.992 248.5,176C 248.486,177.385 248.152,178.551 247.5,179.5C 247.599,176.763 247.265,174.096 246.5,171.5 Z"/></g>
<g><path style="opacity:0.237" fill="#dcf8d6" d="M 160.5,189.5 C 144.818,188.168 128.818,188.168 112.5,189.5C 120.449,188.026 128.616,187.36 137,187.5C 145.056,187.338 152.889,188.005 160.5,189.5 Z"/></g>
<g><path style="opacity:0.192" fill="#cef6c7" d="M 230.5,187.5 C 234.167,188.833 237.833,188.833 241.5,187.5C 241.389,188.117 241.056,188.617 240.5,189C 237.5,189.667 234.5,189.667 231.5,189C 230.944,188.617 230.611,188.117 230.5,187.5 Z"/></g>
<g><path style="opacity:0.941" fill="#bbf2b0" d="M 161.5,189.5 C 164.187,189.336 166.854,189.503 169.5,190C 170.416,190.278 171.082,190.778 171.5,191.5C 167.922,191.451 164.589,190.785 161.5,189.5 Z"/></g>
<g><path style="opacity:0.239" fill="#d7f7d1" d="M 103.5,189.5 C 100.456,191.011 97.1224,191.678 93.5,191.5C 96.5885,190.215 99.9219,189.549 103.5,189.5 Z"/></g>
<g><path style="opacity:0.22" fill="#daf8d4" d="M 92.5,191.5 C 89.1244,193.082 85.4578,193.749 81.5,193.5C 84.9085,192.097 88.5752,191.43 92.5,191.5 Z"/></g>
<g><path style="opacity:0.933" fill="#baf2ae" d="M 173.5,191.5 C 176.152,191.41 178.485,192.076 180.5,193.5C 177.772,193.829 175.438,193.163 173.5,191.5 Z"/></g>
<g><path style="opacity:0.776" fill="#c9f5c0" d="M 180.5,193.5 C 182.898,193.259 184.898,193.926 186.5,195.5C 184.214,195.405 182.214,194.738 180.5,193.5 Z"/></g>
<g><path style="opacity:0.004" fill="#e5fae1" d="M 80.5,193.5 C 78.0948,194.768 75.4282,195.435 72.5,195.5C 74.78,193.777 77.4467,193.111 80.5,193.5 Z"/></g>
<g><path style="opacity:0.11" fill="#e2f9dd" d="M 188.5,195.5 C 190.153,195.66 191.486,196.326 192.5,197.5C 190.62,197.771 189.287,197.104 188.5,195.5 Z"/></g>
<g><path style="opacity:0.416" fill="#d3f7cc" d="M 67.5,201.5 C 67.3677,204.57 67.701,207.57 68.5,210.5C 67.8826,210.389 67.3826,210.056 67,209.5C 66.1993,206.633 66.3659,203.966 67.5,201.5 Z"/></g>
<g><path style="opacity:0.796" fill="#c2f3b7" d="M 157.5,208.5 C 160.689,208.858 163.689,209.525 166.5,210.5C 163.813,210.664 161.146,210.497 158.5,210C 157.944,209.617 157.611,209.117 157.5,208.5 Z"/></g>
<g><path style="opacity:0.965" fill="#baf2ae" d="M 96.5,210.5 C 96.0825,211.222 95.4158,211.722 94.5,212C 91.5184,212.498 88.5184,212.665 85.5,212.5C 88.9458,211.313 92.6125,210.646 96.5,210.5 Z"/></g>
<g><path style="opacity:0.416" fill="#d8f8d2" d="M 169.5,210.5 C 171.403,210.796 173.07,211.463 174.5,212.5C 172.302,212.88 170.635,212.213 169.5,210.5 Z"/></g>
<g><path style="opacity:0.165" fill="#d9f8d3" d="M 71.5,212.5 C 74.7644,213.324 78.0977,213.658 81.5,213.5C 78.6965,214.638 75.6965,214.805 72.5,214C 71.944,213.617 71.6107,213.117 71.5,212.5 Z"/></g>
<g><path style="opacity:0.506" fill="#c8f5be" d="M 182.5,214.5 C 184.553,214.402 186.22,215.069 187.5,216.5C 185.447,216.598 183.78,215.931 182.5,214.5 Z"/></g>
<g><path style="opacity:1" fill="#abef9d" d="M 227.5,216.5 C 229.026,217.492 229.693,218.992 229.5,221C 229.693,223.008 229.026,224.508 227.5,225.5C 228.678,222.477 228.678,219.477 227.5,216.5 Z"/></g>
<g><path style="opacity:0.925" fill="#bef2b1" d="M 27.5,243.5 C 29.0481,243.821 29.7148,244.821 29.5,246.5C 28.5987,245.71 27.9321,244.71 27.5,243.5 Z"/></g>
<g><path style="opacity:0.502" fill="#d7f7d1" d="M 45.5,266.5 C 47.0269,266.427 48.0269,267.094 48.5,268.5C 46.9731,268.573 45.9731,267.906 45.5,266.5 Z"/></g>
<g><path style="opacity:0.329" fill="#d9f8d3" d="M 53.5,273.5 C 55.0269,273.427 56.0269,274.094 56.5,275.5C 54.9731,275.573 53.9731,274.906 53.5,273.5 Z"/></g>
<g><path style="opacity:0.796" fill="#c3f4b8" d="M 59.5,278.5 C 61.4044,278.738 62.7377,279.738 63.5,281.5C 61.5956,281.262 60.2623,280.262 59.5,278.5 Z"/></g>
<g><path style="opacity:0.369" fill="#d2f7cb" d="M 63.5,281.5 C 65.0269,281.427 66.0269,282.094 66.5,283.5C 64.9731,283.573 63.9731,282.906 63.5,281.5 Z"/></g>
<g><path style="opacity:0.443" fill="#cdf6c5" d="M 66.5,283.5 C 68.0269,283.427 69.0269,284.094 69.5,285.5C 67.9731,285.573 66.9731,284.906 66.5,283.5 Z"/></g>
<g><path style="opacity:0.396" fill="#d0f6c8" d="M 69.5,285.5 C 71.0269,285.427 72.0269,286.094 72.5,287.5C 70.9731,287.573 69.9731,286.906 69.5,285.5 Z"/></g>
<g><path style="opacity:0.518" fill="#c1f4b7" d="M 72.5,287.5 C 74.0269,287.427 75.0269,288.094 75.5,289.5C 73.9731,289.573 72.9731,288.906 72.5,287.5 Z"/></g>
<g><path style="opacity:0.886" fill="#bdf2b2" d="M 96.5,300.5 C 98.8984,300.259 100.898,300.926 102.5,302.5C 100.102,302.741 98.1016,302.074 96.5,300.5 Z"/></g>
<g><path style="opacity:0.631" fill="#c2f3b8" d="M 114.5,306.5 C 117.152,306.41 119.485,307.076 121.5,308.5C 118.772,308.829 116.438,308.163 114.5,306.5 Z"/></g>
<g><path style="opacity:0.508" fill="#d0f6ca" d="M 132.5,310.5 C 139.016,310.79 145.35,311.457 151.5,312.5C 146.455,312.391 141.622,312.391 137,312.5C 135.378,311.901 133.878,311.234 132.5,310.5 Z"/></g>
<g><path style="opacity:0.18" fill="#ddf9d8" d="M 180.5,310.5 C 179.391,311.29 178.058,311.79 176.5,312C 171.177,312.499 165.844,312.666 160.5,312.5C 166.987,311.485 173.654,310.818 180.5,310.5 Z"/></g>
</svg>
